<?xml version="1.0" encoding="utf-8"?>
<!-- Generator: Adobe Illustrator 19.2.1, SVG Export Plug-In . SVG Version: 6.00 Build 0)  -->
<svg version="1.1" id="Capa_1" xmlns="http://www.w3.org/2000/svg" xmlns:xlink="http://www.w3.org/1999/xlink" x="0px" y="0px"
	 viewBox="0 0 22 20" style="enable-background:new 0 0 22 20;" xml:space="preserve">
<style type="text/css">
	.st0{fill:#0033A0;}
</style>
<g id="Arrow_Big">
	<path id="Vector" class="st0" d="M1.9,11.5h14.5l-5.9,5.9c-0.6,0.6-0.6,1.5,0,2.1c0.6,0.6,1.5,0.6,2.1,0l8.5-8.5
		c0.3-0.3,0.4-0.7,0.4-1.1c0-0.4-0.2-0.8-0.4-1.1l-8.5-8.5C12.4,0.1,12,0,11.6,0c-0.4,0-0.8,0.1-1.1,0.4C9.9,1,9.9,2,10.5,2.6
		l5.9,5.9H1.9c-0.8,0-1.5,0.7-1.5,1.5C0.4,10.8,1.1,11.5,1.9,11.5z"/>
</g>
</svg>
