<?xml version="1.0" encoding="utf-8"?>
<!-- Generator: Adobe Illustrator 19.2.1, SVG Export Plug-In . SVG Version: 6.00 Build 0)  -->
<svg version="1.1" id="Capa_1" xmlns="http://www.w3.org/2000/svg" xmlns:xlink="http://www.w3.org/1999/xlink" x="0px" y="0px"
	 viewBox="0 0 16 16" style="enable-background:new 0 0 16 16;" xml:space="preserve">
<style type="text/css">
	.st0{fill:#DFEAFF;}
	.st1{fill:#FFFFFF;}
</style>
<path class="st0" d="M8.3,11.2V5.6H7.7v5.6L5.8,9.3L5.4,9.7l2.4,2.4c0.1,0.1,0.1,0.1,0.2,0.1c0.1,0,0.2,0,0.2-0.1l2.4-2.4l-0.4-0.4
	L8.3,11.2z"/>
<path class="st1" d="M10.1,0.1H3.1c-0.7,0-1.3,0.6-1.3,1.3v4.2h0c0,0.3,0.3,0.6,0.6,0.6V1.4c0-0.4,0.3-0.7,0.7-0.7h6.5v2.6
	c0,0.7,0.6,1.3,1.3,1.3h2.6v10c0,0.4-0.3,0.7-0.7,0.7H12c-0.3,0-0.6,0.3-0.6,0.6h1.5c0.7,0,1.3-0.6,1.3-1.3V4.2L10.1,0.1L10.1,0.1z
	 M10.2,3.3V1.1L13.1,4h-2.2C10.5,4,10.2,3.7,10.2,3.3z"/>
<path class="st1" d="M9.5,15.3H3.1c-0.4,0-0.7-0.3-0.7-0.7V8.1h0c0-0.3-0.3-0.6-0.6-0.6v7.1c0,0.7,0.6,1.3,1.3,1.3h6.4
	c0.3,0,0.6-0.3,0.6-0.6H9.5z"/>
</svg>
